<mxfile host="app.diagrams.net" modified="2023-10-16T01:42:54.037Z" agent="Mozilla/5.0 (Windows NT 10.0; Win64; x64) AppleWebKit/537.36 (KHTML, like Gecko) Chrome/95.0.4638.69 Safari/537.36" etag="fkRfiJUCkNZNa9QdqWRI" version="21.8.2" type="github">
  <diagram name="第 1 页" id="NheZWY-Viy5NqkN2s20z">
    <mxGraphModel dx="794" dy="471" grid="0" gridSize="10" guides="1" tooltips="1" connect="1" arrows="1" fold="1" page="1" pageScale="1" pageWidth="827" pageHeight="1169" math="0" shadow="0">
      <root>
        <mxCell id="0" />
        <mxCell id="1" parent="0" />
        <mxCell id="D8c3DqQ6RVQ_JDWZyJ6u-3" style="edgeStyle=orthogonalEdgeStyle;rounded=0;orthogonalLoop=1;jettySize=auto;html=1;exitX=0.5;exitY=1;exitDx=0;exitDy=0;entryX=0.5;entryY=0;entryDx=0;entryDy=0;" edge="1" parent="1" source="D8c3DqQ6RVQ_JDWZyJ6u-1" target="D8c3DqQ6RVQ_JDWZyJ6u-2">
          <mxGeometry relative="1" as="geometry" />
        </mxCell>
        <mxCell id="D8c3DqQ6RVQ_JDWZyJ6u-4" value="选择OA部门、选择U9C部门，然后进行关联" style="edgeLabel;html=1;align=center;verticalAlign=middle;resizable=0;points=[];" vertex="1" connectable="0" parent="D8c3DqQ6RVQ_JDWZyJ6u-3">
          <mxGeometry x="-0.3" y="-1" relative="1" as="geometry">
            <mxPoint as="offset" />
          </mxGeometry>
        </mxCell>
        <mxCell id="D8c3DqQ6RVQ_JDWZyJ6u-1" value="组织架构调整申请单" style="rounded=0;whiteSpace=wrap;html=1;fillColor=#dae8fc;strokeColor=#6c8ebf;" vertex="1" parent="1">
          <mxGeometry x="120" y="80" width="120" height="40" as="geometry" />
        </mxCell>
        <mxCell id="D8c3DqQ6RVQ_JDWZyJ6u-2" value="核算组织管理" style="rounded=0;whiteSpace=wrap;html=1;fillColor=#fff2cc;strokeColor=#d6b656;" vertex="1" parent="1">
          <mxGeometry x="120" y="200" width="120" height="40" as="geometry" />
        </mxCell>
      </root>
    </mxGraphModel>
  </diagram>
</mxfile>
